<svg width="164" height="120" viewBox="0 0 164 120" fill="none" xmlns="http://www.w3.org/2000/svg">
<path d="M63.6217 66.1732C63.3819 66.1732 63.1604 66.1176 62.939 65.9881L39.3207 52.2907C38.6748 51.9205 38.4534 51.0876 38.8225 50.4397L60.3742 13.0311C60.5587 12.7164 60.8355 12.4943 61.1861 12.4018C61.5367 12.3092 61.8873 12.3647 62.201 12.5313L85.8193 26.2287C86.4651 26.5989 86.6865 27.4318 86.3175 28.0797L64.8027 65.5068C64.6181 65.8215 64.3229 66.0436 63.9908 66.1361C63.8616 66.1732 63.7509 66.1732 63.6217 66.1732ZM41.8486 50.6433L63.142 62.9895L83.3283 27.8946L62.0349 15.5485L41.8486 50.6433Z" fill="#0C5F2C"/>
<path d="M65.0428 78.5378C64.8029 78.5378 64.5815 78.4823 64.3601 78.3527L27.973 57.2514C27.3272 56.8812 27.1058 56.0482 27.4748 55.4189L32.4384 46.7748C32.6229 46.4601 32.9181 46.238 33.2502 46.1454C33.6008 46.0529 33.9699 46.1084 34.2651 46.275L70.6706 67.3763C71.3164 67.7465 71.5378 68.5795 71.1688 69.2273L66.1868 77.8715C66.0023 78.1861 65.7255 78.4083 65.3749 78.5008C65.2826 78.5193 65.1535 78.5378 65.0428 78.5378ZM30.4825 55.5855L64.5446 75.3356L68.1796 69.0237L34.1175 49.2736L30.4825 55.5855Z" fill="#0C5F2C"/>
<path d="M91.5583 32.448C91.3184 32.448 91.097 32.3925 90.8756 32.2629L54.4701 11.1616C53.8243 10.7914 53.6028 9.95846 53.9719 9.31061L58.9539 0.666467C59.1199 0.351798 59.4152 0.129679 59.7658 0.0371289C60.1163 -0.0554209 60.4854 0.000108968 60.7991 0.185208L97.2046 21.2865C97.8504 21.6567 98.0718 22.4897 97.7028 23.1375L92.7392 31.7817C92.5547 32.0964 92.2595 32.3185 91.9273 32.411C91.7797 32.4295 91.669 32.448 91.5583 32.448ZM56.9795 9.49571L91.0601 29.2458L94.6767 22.9339L60.6145 3.20233L56.9795 9.49571Z" fill="#0C5F2C"/>
<path d="M77.7191 61.6382C77.4793 61.6382 77.2578 61.5826 77.0364 61.4531L68.4379 56.4739C67.792 56.1037 67.5706 55.2708 67.9397 54.6229L78.4941 36.2425C78.6786 35.9279 78.9739 35.7057 79.306 35.6132C79.6566 35.5206 80.0256 35.5762 80.3208 35.7428L88.9379 40.7404C89.5837 41.1106 89.8051 41.9436 89.4361 42.5914L78.8816 60.9533C78.6971 61.268 78.4019 61.4901 78.0697 61.5826C77.959 61.6197 77.8298 61.6382 77.7191 61.6382ZM70.9473 54.808L77.2209 58.436L86.4468 42.4063L80.1732 38.7599L70.9473 54.808Z" fill="#0C5F2C"/>
<path d="M150.051 104.063C147.578 104.063 145.235 103.341 143.242 101.971L78.9925 57.8622C78.4205 57.4735 78.236 56.6775 78.5865 56.0667L85.0816 44.7757C85.4322 44.1648 86.1887 43.9242 86.8345 44.2389L156.988 78.0565C160.051 79.5373 162.321 82.2398 163.373 85.6456C164.535 89.4216 164.074 93.5494 162.118 96.9552C159.645 101.268 154.903 104.063 150.051 104.063ZM81.5388 56.3444L144.773 99.7502C146.323 100.805 148.15 101.361 150.069 101.361C153.981 101.361 157.8 99.1023 159.793 95.6225C161.362 92.9015 161.749 89.4772 160.808 86.4601C159.978 83.7576 158.206 81.6475 155.826 80.4999L86.7976 47.219L81.5388 56.3444Z" fill="#0C5F2C"/>
<path d="M135.769 96.5479C135.492 96.5479 135.234 96.4739 135.012 96.3073L121.93 87.33C121.358 86.9227 121.173 86.1453 121.524 85.5345L131.968 67.3762C132.318 66.7654 133.075 66.5248 133.721 66.8394L147.984 73.7251C148.316 73.8917 148.574 74.1879 148.685 74.5396C148.796 74.8913 148.759 75.28 148.556 75.6132L136.95 95.8816C136.765 96.2147 136.452 96.4369 136.083 96.5294C135.972 96.5479 135.88 96.5479 135.769 96.5479ZM124.495 85.8121L135.344 93.2531L145.53 75.5206L133.702 69.8195L124.495 85.8121Z" fill="#0C5F2C"/>
<path d="M77.6083 103.119H12.012C11.274 103.119 10.665 102.508 10.665 101.768V84.8866C10.665 84.1462 11.274 83.5354 12.012 83.5354H77.6268C78.3649 83.5354 78.9738 84.1462 78.9738 84.8866V101.768C78.9553 102.508 78.3649 103.119 77.6083 103.119ZM13.359 100.416H76.2798V86.2379H13.359V100.416Z" fill="#0C5F2C"/>
<path d="M88.2736 120H1.34698C0.608911 120 0 119.389 0 118.649V101.768C0 101.027 0.608911 100.417 1.34698 100.417H88.2736C89.0117 100.417 89.6206 101.027 89.6206 101.768V118.649C89.6206 119.389 89.0117 120 88.2736 120ZM2.69397 117.298H86.9266V103.119H2.69397V117.298Z" fill="#0C5F2C"/>
</svg>
