<svg width="126" height="120" viewBox="0 0 126 120" fill="none" xmlns="http://www.w3.org/2000/svg">
<path d="M108.889 119.858H9.05873C4.05446 119.858 0 115.786 0 110.778V32.1353C0 27.1271 4.06863 23.0552 9.05873 23.0552H108.889C113.893 23.0552 117.962 27.1271 117.962 32.1353V58.9076C117.962 59.4751 117.494 59.9433 116.927 59.9433H90.5023C84.1654 59.9433 79.0194 65.1077 79.0194 71.4496C79.0194 77.8057 84.1654 82.97 90.5023 82.97H116.927C117.494 82.97 117.962 83.4382 117.962 84.0058V110.778C117.962 115.786 113.893 119.858 108.889 119.858ZM9.05873 25.1266C5.20275 25.1266 2.05558 28.2763 2.05558 32.1495V110.778C2.05558 114.651 5.18857 117.801 9.05873 117.801H108.889C112.745 117.801 115.892 114.651 115.892 110.778V85.0415H90.5023C83.0313 85.0415 76.9496 78.9407 76.9496 71.4638C76.9496 63.9868 83.0313 57.8861 90.5023 57.8861H115.892V32.1353C115.892 28.2621 112.745 25.1124 108.889 25.1124H9.05873V25.1266Z" fill="#0C5F2C"/>
<path d="M124.965 85.0413H90.5024C83.0314 85.0413 76.9497 78.9406 76.9497 71.4637C76.9497 63.9867 83.0314 57.886 90.5024 57.886H124.965C125.532 57.886 126 58.3542 126 58.9217V84.0056C126 84.5731 125.532 85.0413 124.965 85.0413ZM90.5024 59.9432C84.1655 59.9432 79.0195 65.1076 79.0195 71.4495C79.0195 77.8056 84.1655 82.9699 90.5024 82.9699H123.93V59.9432H90.5024Z" fill="#0C5F2C"/>
<path d="M94.2164 78.3731C90.403 78.3731 87.3125 75.266 87.3125 71.4495C87.3125 67.633 90.4171 64.54 94.2164 64.54C98.0157 64.54 101.12 67.6472 101.12 71.4495C101.12 75.266 98.0299 78.3731 94.2164 78.3731ZM94.2164 66.6114C91.5512 66.6114 89.3681 68.7822 89.3681 71.4637C89.3681 74.1451 91.5371 76.3159 94.2164 76.3159C96.8816 76.3159 99.0647 74.1451 99.0647 71.4637C99.0506 68.7822 96.8816 66.6114 94.2164 66.6114Z" fill="#0C5F2C"/>
<path d="M24.9363 120C24.3693 120 23.8022 119.943 23.2493 119.83C22.7248 119.73 22.3704 119.248 22.4129 118.709C22.4696 118.184 22.9091 117.773 23.4478 117.773H26.4674C27.0061 117.773 27.4456 118.184 27.5023 118.709C27.559 119.248 27.1904 119.73 26.6659 119.83C26.0846 119.957 25.5034 120 24.9363 120ZM113.851 26.8432C113.624 26.8432 113.397 26.7723 113.213 26.6304C111.965 25.6515 110.477 25.1265 108.903 25.1265H14.1056C13.581 25.1265 13.1416 24.7434 13.0849 24.2327C13.014 23.7219 13.34 23.2395 13.8362 23.0977L98.6962 0.312131C99.4618 0.0993142 100.256 0 101.035 0C105.147 0 108.761 2.76661 109.811 6.73918L114.815 25.4386C114.857 25.5521 114.886 25.6798 114.886 25.8075C114.886 26.375 114.418 26.8432 113.851 26.8432ZM21.9451 23.0551H108.889C110.037 23.0551 111.157 23.2679 112.206 23.6794L107.812 7.26413C106.989 4.19957 104.211 2.05722 101.035 2.05722C100.426 2.05722 99.8304 2.14235 99.2349 2.29842L21.9451 23.0551Z" fill="#0C5F2C"/>
<path d="M26.8362 37.6686H14.4743C13.9073 37.6686 13.4395 37.2004 13.4395 36.6329C13.4395 36.0654 13.9073 35.5972 14.4743 35.5972H26.8362C27.4032 35.5972 27.871 36.0654 27.871 36.6329C27.871 37.2004 27.4032 37.6686 26.8362 37.6686Z" fill="#0C5F2C"/>
<path d="M46.0027 37.6686H33.6408C33.0738 37.6686 32.606 37.2004 32.606 36.6329C32.606 36.0654 33.0738 35.5972 33.6408 35.5972H46.0027C46.5697 35.5972 47.0376 36.0654 47.0376 36.6329C47.0376 37.2004 46.5697 37.6686 46.0027 37.6686Z" fill="#0C5F2C"/>
<path d="M65.1692 37.6686H52.8073C52.2403 37.6686 51.7725 37.2004 51.7725 36.6329C51.7725 36.0654 52.2403 35.5972 52.8073 35.5972H65.1692C65.7362 35.5972 66.2041 36.0654 66.2041 36.6329C66.1899 37.2004 65.7362 37.6686 65.1692 37.6686Z" fill="#0C5F2C"/>
<path d="M84.3215 37.6686H71.9597C71.3926 37.6686 70.9248 37.2004 70.9248 36.6329C70.9248 36.0654 71.3926 35.5972 71.9597 35.5972H84.3215C84.8886 35.5972 85.3564 36.0654 85.3564 36.6329C85.3564 37.2004 84.9028 37.6686 84.3215 37.6686Z" fill="#0C5F2C"/>
<path d="M103.488 37.6686H91.1262C90.5591 37.6686 90.0913 37.2004 90.0913 36.6329C90.0913 36.0654 90.5591 35.5972 91.1262 35.5972H103.488C104.055 35.5972 104.523 36.0654 104.523 36.6329C104.523 37.2004 104.055 37.6686 103.488 37.6686Z" fill="#0C5F2C"/>
<path d="M26.8362 107.33H14.4743C13.9073 107.33 13.4395 106.862 13.4395 106.295C13.4395 105.727 13.9073 105.259 14.4743 105.259H26.8362C27.4032 105.259 27.871 105.727 27.871 106.295C27.871 106.862 27.4032 107.33 26.8362 107.33Z" fill="#0C5F2C"/>
<path d="M46.0027 107.33H33.6408C33.0738 107.33 32.606 106.862 32.606 106.295C32.606 105.727 33.0738 105.259 33.6408 105.259H46.0027C46.5697 105.259 47.0376 105.727 47.0376 106.295C47.0376 106.862 46.5697 107.33 46.0027 107.33Z" fill="#0C5F2C"/>
<path d="M65.1692 107.33H52.8073C52.2403 107.33 51.7725 106.862 51.7725 106.295C51.7725 105.727 52.2403 105.259 52.8073 105.259H65.1692C65.7362 105.259 66.2041 105.727 66.2041 106.295C66.1899 106.862 65.7362 107.33 65.1692 107.33Z" fill="#0C5F2C"/>
<path d="M84.3215 107.33H71.9597C71.3926 107.33 70.9248 106.862 70.9248 106.295C70.9248 105.727 71.3926 105.259 71.9597 105.259H84.3215C84.8886 105.259 85.3564 105.727 85.3564 106.295C85.3564 106.862 84.9028 107.33 84.3215 107.33Z" fill="#0C5F2C"/>
<path d="M103.488 107.33H91.1262C90.5591 107.33 90.0913 106.862 90.0913 106.295C90.0913 105.727 90.5591 105.259 91.1262 105.259H103.488C104.055 105.259 104.523 105.727 104.523 106.295C104.523 106.862 104.055 107.33 103.488 107.33Z" fill="#0C5F2C"/>
<path d="M116.927 97.0159H1.03488C0.467822 97.0159 0 96.5477 0 95.9802V46.9473C0 46.3798 0.467822 45.9116 1.03488 45.9116H116.941C117.508 45.9116 117.976 46.3798 117.976 46.9473V58.9218C117.976 59.4893 117.508 59.9575 116.941 59.9575H90.5023C84.1654 59.9575 79.0194 65.1218 79.0194 71.4638C79.0194 77.8199 84.1654 82.9842 90.5023 82.9842H116.927C117.494 82.9842 117.962 83.4524 117.962 84.0199V95.9944C117.962 96.5477 117.508 97.0159 116.927 97.0159ZM2.06976 94.9445H115.906V85.0414H90.5023C83.0313 85.0414 76.9496 78.9407 76.9496 71.4638C76.9496 63.9868 83.0313 57.8861 90.5023 57.8861H115.892V47.983H2.06976V94.9445Z" fill="#0C5F2C"/>
</svg>
