<svg width="77" height="129" viewBox="0 0 77 129" fill="none" xmlns="http://www.w3.org/2000/svg">
<path d="M49.4475 129H27.5526C26.9753 129 26.499 128.521 26.499 127.941V94.3283C26.499 93.7483 26.9753 93.2698 27.5526 93.2698H49.4475C50.0248 93.2698 50.5011 93.7483 50.5011 94.3283V127.941C50.5011 128.521 50.0248 129 49.4475 129ZM28.6062 126.883H48.3939V95.3724H28.6062V126.883Z" fill="#0C5F2C"/>
<path d="M56.5916 95.3724H20.4081C19.8308 95.3724 19.3545 94.8939 19.3545 94.3139V87.1069C19.3545 86.5269 19.8308 86.0483 20.4081 86.0483H56.5916C57.1689 86.0483 57.6452 86.5269 57.6452 87.1069V94.3139C57.6452 94.9084 57.1689 95.3724 56.5916 95.3724ZM21.4617 93.2698H55.538V88.1655H21.4617V93.2698Z" fill="#0C5F2C"/>
<path d="M44.1218 88.1655H32.893C32.3156 88.1655 31.8394 87.687 31.8394 87.1069V75.9412C31.8394 75.6367 31.9693 75.3467 32.2002 75.1437C32.4311 74.9407 32.7486 74.8537 33.0517 74.8972C36.6311 75.4482 40.3693 75.4482 43.9631 74.8972C44.2662 74.8537 44.5693 74.9407 44.8002 75.1437C45.0311 75.3467 45.161 75.6367 45.161 75.9412V87.1069C45.161 87.7015 44.6991 88.1655 44.1218 88.1655ZM33.9321 86.0629H43.0538V77.1738C40.0373 77.5363 36.9342 77.5363 33.9321 77.1738V86.0629Z" fill="#0C5F2C"/>
<path d="M38.4928 77.4348C17.2619 77.4348 0 60.0627 0 38.7174C0 17.3721 17.2619 0 38.4928 0C59.7237 0 76.9856 17.3721 76.9856 38.7174C77 60.0627 59.7237 77.4348 38.4928 77.4348ZM38.4928 2.11713C18.4309 2.11713 2.09278 18.5322 2.09278 38.7174C2.09278 58.9027 18.4165 75.3177 38.4928 75.3177C58.5691 75.3177 74.8928 58.9027 74.8928 38.7174C74.8928 18.5322 58.5691 2.11713 38.4928 2.11713Z" fill="#0C5F2C"/>
<path d="M38.4929 68.3427C22.2558 68.3427 9.03516 55.0599 9.03516 38.7174C9.03516 22.3894 22.2413 9.09204 38.4929 9.09204C54.73 9.09204 67.9506 22.3749 67.9506 38.7174C67.9506 55.0454 54.7444 68.3427 38.4929 68.3427ZM38.4929 11.2092C23.4104 11.2092 11.1424 23.5494 11.1424 38.7174C11.1424 53.8853 23.4104 66.2256 38.4929 66.2256C53.5754 66.2256 65.8434 53.8853 65.8434 38.7174C65.8434 23.5494 53.5754 11.2092 38.4929 11.2092Z" fill="#0C5F2C"/>
<path d="M38.4929 37.3399C34.0765 37.3399 30.4971 33.7292 30.4971 29.2919C30.4971 24.8546 34.0909 21.2439 38.4929 21.2439C42.9094 21.2439 46.4888 24.8546 46.4888 29.2919C46.5033 33.7292 42.9094 37.3399 38.4929 37.3399ZM38.4929 23.361C35.2455 23.361 32.5899 26.0292 32.5899 29.2919C32.5899 32.5691 35.2311 35.2228 38.4929 35.2228C41.7404 35.2228 44.3816 32.5691 44.3816 29.2919C44.396 26.0147 41.7548 23.361 38.4929 23.361Z" fill="#0C5F2C"/>
<path d="M52.9835 56.1909H24.0165C23.4392 56.1909 22.9629 55.7124 22.9629 55.1324C22.9629 50.3471 24.6516 46.3158 27.8412 43.4736C30.6557 40.965 34.4371 39.5874 38.4928 39.5874C42.5485 39.5874 46.3299 40.965 49.1443 43.4736C52.3052 46.2868 53.9938 50.2891 54.0227 55.0164C54.0227 55.0454 54.0227 55.0889 54.0227 55.1179C54.0371 55.7124 53.5608 56.1909 52.9835 56.1909ZM25.099 54.0738H51.8866C51.3814 45.5763 44.699 41.7045 38.4928 41.7045C32.2866 41.7045 25.6186 45.5763 25.099 54.0738Z" fill="#0C5F2C"/>
<path d="M67.0556 128.986H9.94423C9.36691 128.986 8.89062 128.507 8.89062 127.927C8.89062 127.347 9.36691 126.868 9.94423 126.868H67.0556C67.6329 126.868 68.1092 127.347 68.1092 127.927C68.1092 128.522 67.6329 128.986 67.0556 128.986Z" fill="#0C5F2C"/>
</svg>
