<svg width="47" height="48" viewBox="0 0 47 48" fill="none" xmlns="http://www.w3.org/2000/svg">
<path d="M23.5001 47.3335C14.227 47.3389 5.86459 41.6539 2.31519 32.9312C-1.23421 24.2085 0.729075 14.1676 7.28887 7.49403C13.0806 1.59701 21.5222 -0.706042 29.4339 1.45242C37.3455 3.61088 43.5252 9.90293 45.6451 17.9584C47.765 26.0139 45.5031 34.609 39.7114 40.506C35.4201 44.8951 29.5826 47.3535 23.5001 47.3335ZM5.16679 24.4014C5.27522 34.6709 13.511 42.9223 23.5976 42.8674C33.6842 42.8119 41.8324 34.4709 41.8324 24.2007C41.8324 13.9305 33.6842 5.58951 23.5976 5.53403C13.511 5.4791 5.27522 13.7305 5.16679 24V24.4014ZM17.5624 33.3334L14.3335 30.0434L20.2689 24L14.3335 17.9567L17.5647 14.6667L23.5001 20.71L29.4355 14.6667L32.6668 17.9567L26.7314 24L32.6668 30.0434L29.4378 33.3334L23.5001 27.29L17.5647 33.3334H17.5624Z" fill="#E3E3E3"/>
</svg>
