<svg width="27" height="21" viewBox="0 0 27 21" fill="none" xmlns="http://www.w3.org/2000/svg">
<path d="M0.565891 9.81639C3.25459 8.41576 6.2559 7.24671 9.06017 6.07172C13.8846 4.14717 18.7282 2.25598 23.6207 0.495302C24.5726 0.195318 26.283 -0.0980127 26.4507 1.23608C26.3588 3.12455 25.981 5.00197 25.7219 6.87938C25.0643 11.008 24.3041 15.1225 23.5628 19.2375C23.3074 20.6082 21.4918 21.3177 20.3302 20.4405C17.5383 18.6571 14.7251 16.8909 11.9689 15.0661C11.066 14.1985 11.9033 12.9525 12.7096 12.3329C15.009 10.1897 17.4476 8.36886 19.6268 6.11495C20.2147 4.77244 18.4778 5.90386 17.9049 6.25056C14.7569 8.30218 11.686 10.4791 8.36715 12.2821C6.67185 13.1647 4.69596 12.4105 3.00144 11.918C1.48211 11.3231 -0.744304 10.7237 0.565737 9.81657L0.565891 9.81639Z" fill="#F7FFFF"/>
</svg>
