<svg width="25" height="24" viewBox="0 0 25 24" fill="none" xmlns="http://www.w3.org/2000/svg">
<path d="M21.1159 4.11953C18.8439 1.97828 15.8146 0.788696 12.6171 0.788696C5.96951 0.788696 0.584145 5.86426 0.584145 12.1294C0.584145 14.112 1.17317 16.0947 2.18293 17.7601L0.5 23.6287L6.89512 22.0426C8.6622 22.915 10.5976 23.3908 12.6171 23.3908C19.2646 23.3908 24.65 18.3153 24.65 12.0501C24.5659 9.11579 23.3878 6.26079 21.1159 4.11953ZM18.4232 16.174C18.1707 16.8084 16.9927 17.4429 16.4037 17.5222C15.8988 17.6015 15.2256 17.6015 14.5524 17.4429C14.1317 17.2843 13.5427 17.1257 12.8695 16.8084C9.84024 15.6189 7.90488 12.7639 7.73659 12.5259C7.56829 12.3673 6.47439 11.0191 6.47439 9.59163C6.47439 8.16412 7.23171 7.52968 7.48415 7.21246C7.73659 6.89523 8.07317 6.89523 8.32561 6.89523C8.4939 6.89523 8.74634 6.89523 8.91463 6.89523C9.08292 6.89523 9.33537 6.81593 9.5878 7.37107C9.84024 7.92621 10.4293 9.35371 10.5134 9.43301C10.5976 9.59163 10.5976 9.75024 10.5134 9.90885C10.4293 10.0675 10.3451 10.2261 10.1768 10.3847C10.0085 10.5433 9.84024 10.7812 9.75609 10.8605C9.5878 11.0191 9.41951 11.1777 9.5878 11.4157C9.7561 11.7329 10.3451 12.6052 11.2707 13.3983C12.4488 14.35 13.3744 14.6672 13.711 14.8258C14.0476 14.9844 14.2159 14.9051 14.3841 14.7465C14.5524 14.5879 15.1415 13.9534 15.3098 13.6362C15.4781 13.319 15.7305 13.3983 15.9829 13.4776C16.2354 13.5569 17.75 14.2707 18.0024 14.4293C18.339 14.5879 18.5073 14.6672 18.5915 14.7465C18.6756 14.9844 18.6756 15.5396 18.4232 16.174Z" fill="white"/>
</svg>
